# xmcd
#
# Track frame offsets: 
#        150
#        14126
#        27768
#        38376
#        50731
#        63752
#        76793
#        91193
#        103482
#        118056
#        130491
#        143495
#        155574
#        170708
#        186278
#        199138
#        211784
#        224878
#        234924
#        248129
#        263760
#        282369
#        294124
#        306691
#
# Disc length: 4251 seconds
#
# Revision: 0
# Processed by: cddbd v1.5.2PL0 Copyright (c) Steve Scherf et al.
# Submitted via: ExactAudioCopy v1.0b3
#
DISCID=65109918
DTITLE=Various Artist - Great Black Music: roots (1927-1962): cd 1, 1927-1952
DYEAR=2014
DGENRE=black music
TTITLE0=Arthur Blind Blake - seaboard stomp
TTITLE1=Blind Willie Johnson - god moves on water
TTITLE2=Art Tatum - tiger rag
TTITLE3=The Mills Brothers - I've found a new baby
TTITLE4=Robert Johnson - preaching blues
TTITLE5=Fats Waller - why do I lie to myself about you?
TTITLE6=Billie Holiday - this year's kisses
TTITLE7=Duke Ellington - caravan
TTITLE8=Jelly Roll Morton - winin' boy blues
TTITLE9=Solomon Linda - mbube
TTITLE10=Count Basie feat. Lester Young - jive at five
TTITLE11=Bukka White - parchman farm
TTITLE12=Una Mae Carlisle feat. Lester Young - blitzkrieg baby
TTITLE13=Charlie Christian - swing to bop (topsy)
TTITLE14=Big Joe Williams - baby please don't go
TTITLE15=Louis Jordan - choo choo ch'boogie
TTITLE16=Nat King Cole - dream a little dream of me
TTITLE17=Pérez Prado - mambo n.5
TTITLE18=Luiz Gonzaga - no cearã não tem disso não
TTITLE19=Charlie Parker feat. D. Gillespie, T. Monk - bloomdido
TTITLE20=Earl Hines - I hadn't anyone till you
TTITLE21=The Swallows - it ain't the meat
TTITLE22=Esther Phillips - aged and mellow
TTITLE23=Blind Blake and his Royal Victoria Hotel Calypso Orchestra - 
TTITLE23=J.P.Morgan
EXTD=
EXTT0=
EXTT1=
EXTT2=
EXTT3=
EXTT4=
EXTT5=
EXTT6=
EXTT7=
EXTT8=
EXTT9=
EXTT10=
EXTT11=
EXTT12=
EXTT13=
EXTT14=
EXTT15=
EXTT16=
EXTT17=
EXTT18=
EXTT19=
EXTT20=
EXTT21=
EXTT22=
EXTT23=
PLAYORDER=
